<svg width="20" height="20" viewBox="0 0 20 20" fill="none" xmlns="http://www.w3.org/2000/svg">
<path d="M18.3327 10.0006C18.3327 5.39828 14.6017 1.66732 9.99935 1.66732C5.39698 1.66732 1.66602 5.39828 1.66602 10.0007C1.66602 14.603 5.39698 18.334 9.99935 18.334C14.6017 18.334 18.3327 14.603 18.3327 10.0006Z" fill="white"/>
<path d="M12.5079 9.99987C12.5079 10.1582 12.4496 10.3165 12.3246 10.4415L9.38294 13.3832C9.14128 13.6249 8.74128 13.6249 8.49961 13.3832C8.25794 13.1415 8.25794 12.7415 8.49961 12.4999L10.9996 9.99987L8.49961 7.49987C8.25794 7.2582 8.25794 6.8582 8.49961 6.61654C8.74128 6.37487 9.14128 6.37487 9.38294 6.61654L12.3246 9.5582C12.4496 9.6832 12.5079 9.84154 12.5079 9.99987Z" fill="#FD8D1C"/>
</svg>
