<svg width="92" height="85" viewBox="0 0 92 85" fill="none" xmlns="http://www.w3.org/2000/svg">
<g clip-path="url(#clip0_208_2545)">
<path d="M85.8469 58.0555V47.5265C87.8362 48.4788 89.2113 50.5026 89.2113 52.791C89.2113 55.0794 87.8495 57.1164 85.8469 58.0555ZM83.0566 60.4233C83.0566 62.4074 81.4145 64.0476 79.3985 64.0476H73.1103V41.5476H79.3985C81.4011 41.5476 83.0566 43.1614 83.0566 45.172C83.0566 48.2936 83.0566 61.2566 83.0566 60.4365M70.3334 65.6481C70.3334 66.746 69.4389 67.619 68.3441 67.619C67.2493 67.619 66.3682 66.7328 66.3682 65.6481V39.9603C66.3682 38.8757 67.2627 37.9894 68.3441 37.9894C69.4255 37.9894 70.3334 38.8757 70.3334 39.9603V65.6481ZM48.7986 82.2487H42.8041C41.5892 82.2487 40.6013 81.2698 40.6013 80.0661C40.6013 78.8624 41.5892 77.8836 42.8041 77.8836H48.7986C50.0135 77.8836 51.0015 78.8624 51.0015 80.0661C51.0015 81.2698 50.0135 82.2487 48.7986 82.2487ZM69.6925 15.9259C68.5177 17.2884 66.2747 17.4868 64.8996 16.3228C59.6127 11.9312 52.8973 9.49735 45.995 9.49735C39.0926 9.49735 32.3772 11.9312 27.0903 16.3228C25.6618 17.5265 23.5123 17.3413 22.2974 15.9259C21.0958 14.4974 21.2827 12.3677 22.7113 11.1772C29.2264 5.75397 37.4905 2.76455 45.995 2.76455C54.4994 2.76455 62.7635 5.75397 69.2653 11.1772C70.7072 12.3677 70.8807 14.5106 69.6792 15.9259M18.8796 41.5608V64.0608H12.5914C10.5888 64.0608 8.93328 62.4339 8.93328 60.4365C8.93328 57.7381 8.93328 47.8439 8.93328 45.172C8.93328 43.1746 10.5754 41.5476 12.5914 41.5476H18.8796V41.5608ZM21.6699 39.9603C21.6699 38.8757 22.5644 37.9894 23.6592 37.9894C24.7539 37.9894 25.6351 38.8757 25.6351 39.9603V65.6481C25.6351 66.746 24.7406 67.619 23.6592 67.619C22.5777 67.619 21.6699 66.7328 21.6699 65.6481V39.9603ZM6.15633 58.0688C4.16707 57.1296 2.79194 55.0794 2.79194 52.8042C2.79194 50.5291 4.15371 48.4921 6.15633 47.5397V58.0688ZM85.7935 44.6032C85.5265 41.627 83.1901 39.246 80.1996 38.8757V37.2884C80.1996 29.3651 77.3292 22.2222 72.5496 16.6534C73.898 14.1534 73.364 10.9656 71.081 9.07407C64.0719 3.21429 55.1536 0 45.995 0C36.8363 0 27.9314 3.21429 20.9223 9.06085C18.666 10.9392 18.1052 14.1138 19.4403 16.6005C14.6608 22.1958 11.8037 29.3518 11.8037 37.2751V38.8624C8.81313 39.2328 6.47674 41.6138 6.20973 44.5899C2.60503 45.6481 -0.0117188 48.9815 -0.0117188 52.791C-0.0117188 56.6005 2.59168 59.9339 6.20973 61.0053C6.50345 64.246 9.24035 66.8122 12.578 66.8122H19.0264C19.5605 68.8624 21.4162 70.3704 23.6458 70.3704C26.2626 70.3704 28.412 68.2407 28.412 65.6349V39.9471C28.412 37.3413 26.2626 35.2116 23.6458 35.2116C21.4162 35.2116 19.5605 36.746 19.0264 38.7831H14.5806V37.2619C14.5806 30.172 17.0906 23.7566 21.2961 18.7037C23.539 20.3042 26.6764 20.2778 28.8793 18.4259C33.6589 14.4444 39.7335 12.2487 45.9816 12.2487C52.2297 12.2487 58.3043 14.4444 63.0839 18.4259C65.18 20.1852 68.264 20.41 70.6271 18.7302C74.8459 23.7831 77.3826 30.1587 77.3826 37.2619V38.7831H72.9368C72.4027 36.7328 70.547 35.2116 68.3174 35.2116C65.6873 35.2116 63.5512 37.3413 63.5512 39.9471V65.6349C63.5512 67.7645 64.9797 69.5503 66.9289 70.1323V70.9391C66.9289 75.1852 63.431 78.664 59.1321 78.664H53.5381C52.924 76.6137 51.0282 75.119 48.7719 75.119H42.7774C40.0272 75.119 37.7842 77.3413 37.7842 80.0661C37.7842 82.791 40.0272 85.0132 42.7774 85.0132H48.7719C51.0415 85.0132 52.9373 83.4921 53.5381 81.4418H59.1321C64.9797 81.4418 69.7059 76.7328 69.7059 70.9656V70.1587C71.2946 69.6958 72.5229 68.4391 72.9234 66.8254H79.3718C82.7229 66.8254 85.4464 64.2725 85.7401 61.0185C89.3448 59.9471 91.9616 56.6137 91.9616 52.8042C91.9616 48.9947 89.3582 45.6614 85.7401 44.6032" fill="#D34C4A"/>
</g>
<defs>
<clipPath id="clip0_208_2545">
<rect width="92" height="85" fill="white"/>
</clipPath>
</defs>
</svg>
