<svg width="61" height="62" viewBox="0 0 61 62" fill="none" xmlns="http://www.w3.org/2000/svg">
<circle cx="30.5" cy="30.7383" r="30.5" fill="#FCF9F1"/>
<g clip-path="url(#clip0_2_2013)">
<path d="M30 27.2383C28.9391 27.2383 27.9217 27.6597 27.1716 28.4099C26.4214 29.16 26 30.1774 26 31.2383C26 32.2991 26.4214 33.3166 27.1716 34.0667C27.9217 34.8169 28.9391 35.2383 30 35.2383C31.0609 35.2383 32.0783 34.8169 32.8284 34.0667C33.5786 33.3166 34 32.2991 34 31.2383C34 30.1774 33.5786 29.16 32.8284 28.4099C32.0783 27.6597 31.0609 27.2383 30 27.2383Z" fill="#475C6C"/>
<path fill-rule="evenodd" clip-rule="evenodd" d="M25.2 19.2383C23.2904 19.2383 21.4591 19.9969 20.1088 21.3471C18.7586 22.6974 18 24.5287 18 26.4383V36.0383C18 37.9478 18.7586 39.7792 20.1088 41.1294C21.4591 42.4797 23.2904 43.2383 25.2 43.2383H34.8C36.7096 43.2383 38.5409 42.4797 39.8912 41.1294C41.2414 39.7792 42 37.9478 42 36.0383V26.4383C42 24.5287 41.2414 22.6974 39.8912 21.3471C38.5409 19.9969 36.7096 19.2383 34.8 19.2383H25.2ZM24.4 31.2383C24.4 29.7531 24.99 28.3287 26.0402 27.2785C27.0904 26.2283 28.5148 25.6383 30 25.6383C31.4852 25.6383 32.9096 26.2283 33.9598 27.2785C35.01 28.3287 35.6 29.7531 35.6 31.2383C35.6 32.7235 35.01 34.1479 33.9598 35.1981C32.9096 36.2483 31.4852 36.8383 30 36.8383C28.5148 36.8383 27.0904 36.2483 26.0402 35.1981C24.99 34.1479 24.4 32.7235 24.4 31.2383ZM35.6 25.6383H37.2V24.0383H35.6V25.6383Z" fill="#475C6C"/>
</g>
<defs>
<clipPath id="clip0_2_2013">
<rect width="24" height="24" fill="white" transform="translate(18 19.2383)"/>
</clipPath>
</defs>
</svg>
