<svg width="61" height="62" viewBox="0 0 61 62" fill="none" xmlns="http://www.w3.org/2000/svg">
<circle cx="30.5" cy="30.7383" r="30.5" fill="#FCF9F1"/>
<g clip-path="url(#clip0_35_5416)">
<path d="M24.201 40.2383H19.8473V26.2178H24.201V40.2383ZM22.0215 24.3053C20.6295 24.3053 19.5 23.1518 19.5 21.7598C19.5 21.091 19.7657 20.4497 20.2385 19.9768C20.7114 19.5039 21.3528 19.2383 22.0215 19.2383C22.6902 19.2383 23.3316 19.5039 23.8045 19.9768C24.2773 20.4497 24.543 21.091 24.543 21.7598C24.543 23.1518 23.4135 24.3053 22.0215 24.3053ZM40.4955 40.2383H36.1515V33.4133C36.1515 31.7865 36.1185 29.7008 33.888 29.7008C31.6245 29.7008 31.2772 31.4678 31.2772 33.2963V40.2383H26.928V26.2178H31.1033V28.1303H31.164C31.7452 27.0285 33.165 25.866 35.283 25.866C39.6893 25.866 40.4993 28.7678 40.4993 32.5365V40.2383H40.4955Z" fill="#FD8D1C"/>
</g>
<defs>
<clipPath id="clip0_35_5416">
<rect width="24" height="24" fill="white" transform="translate(18 19.2383)"/>
</clipPath>
</defs>
</svg>
