<svg width="36" height="36" viewBox="0 0 36 36" fill="none" xmlns="http://www.w3.org/2000/svg">
<path d="M13.0989 27.0241C10.8603 23.7259 12.102 20.384 13.9558 16.8496C12.6616 16.7096 11.9009 16.4996 11.9009 16.4996L13.0464 14.3038C13.0464 14.3038 13.9733 14.4525 15.1887 14.5837C16.2031 12.729 17.2261 10.8219 17.8645 8.83597C17.8645 8.83597 19.4996 8.29356 20.6714 7.80364C22.1579 7.1825 22.9624 6.50012 22.9624 6.50012C22.9624 6.76258 22.9624 6.9113 22.9624 6.9113C22.9624 6.9113 20.785 10.6731 18.8351 14.7499C18.8351 14.7499 18.8526 14.7499 18.8613 14.7499C21.1086 14.6275 22.8487 14.1288 22.8487 14.1288L23.1285 14.295C23.1285 14.295 22.5864 16.3772 18.5378 16.8233C18.3104 16.8496 18.0831 16.8671 17.8645 16.8846C16.7802 19.3429 15.932 21.6962 15.8358 23.201C15.5647 27.4177 21.1523 28.3276 21.1523 28.3276L21.3622 28.695C21.3622 28.695 15.6784 30.8209 13.1076 27.0241M26.2414 29.2549C23.7144 29.045 20.5927 27.3915 20.5927 23.7609C20.5927 19.2292 24.3527 14.9774 29.2757 14.9774C31.112 14.9774 34.2774 15.896 34.2774 18.4855C34.2774 19.964 33.0882 21.39 31.3218 21.39C30.1589 21.39 29.0921 20.6639 29.2757 19.1067C30.3337 18.818 30.8584 17.9694 30.8584 17.1645C30.8584 16.2809 30.2463 15.3886 29.1095 15.651C26.8273 16.1847 24.9298 19.1767 25.1397 21.9149C25.332 24.4608 26.4338 26.1317 29.3456 26.5954C32.4236 27.0853 33.5604 26.4379 34.3561 25.5368C35.4141 23.2447 36 20.6989 36 18.0131C35.9825 8.05735 27.9291 0 17.9956 0C14.769 0 11.7435 0.848603 9.12023 2.34459C10.3707 2.42333 12.0845 3.00948 12.7841 4.21677C15.4336 8.78347 7.87855 16.6396 7.47632 23.0785C7.20525 27.2953 12.5917 28.2051 12.5917 28.2051L12.8016 28.5725C12.8016 28.5725 7.17901 30.6634 4.547 26.9016C-0.0786982 20.279 8.17586 14.0238 10.222 6.36015C10.8603 3.97181 8.84916 3.38566 7.69492 3.24569C3.04299 6.50012 0 11.8892 0 18.0044C0 27.9426 8.05344 36 17.9956 36C24.6675 36 30.4911 32.3694 33.5953 26.9716C31.5842 28.625 28.8472 29.4736 26.2327 29.2549" fill="#E44746"/>
</svg>
