<svg width="92" height="89" viewBox="0 0 92 89" fill="none" xmlns="http://www.w3.org/2000/svg">
<path d="M46.5848 66.0577L44.9814 67.6567C44.4296 68.204 45.0417 69.4183 45.6279 69.9997L55.5331 79.8592C56.1451 80.4663 57.3607 81.0136 57.8865 80.5091L59.49 78.91C59.9986 78.4055 59.5072 77.234 58.8607 76.567L48.9555 66.7076C48.2831 66.0406 47.0848 65.5532 46.5762 66.0577M10.1107 29.7668L8.50722 31.3658C7.95549 31.8874 8.52446 33.1017 9.13653 33.7088L19.0417 43.5682C19.6279 44.1583 20.8262 44.7397 21.3951 44.1925L22.9986 42.5934C23.5072 42.106 23.0158 40.9174 22.352 40.2504L12.4469 30.391C11.8176 29.7411 10.6193 29.2622 10.1107 29.7668ZM16.8951 45.5863L7.05032 35.7867L6.97274 35.7098L6.56756 36.1117C0.558944 42.0889 2.59343 51.8885 8.45549 61.2006C13.1624 68.6743 20.3693 75.8658 27.8865 80.5347C37.2486 86.3751 47.0934 88.4103 53.102 82.4331L53.5072 82.0312C53.5072 82.0312 53.4469 81.9884 53.4296 81.9456L43.5848 72.1461L40.8262 74.891C38.6969 77.0117 33.8262 74.6858 28.7486 70.547C25.1365 67.5969 21.421 63.9199 18.4727 60.3284C14.3348 55.2747 11.9986 50.4519 14.1279 48.3312L16.9124 45.5863H16.8951ZM6.42101 29.2622L8.02446 27.6632C9.83481 25.8674 12.852 26.5344 14.5848 28.2874L24.49 38.1468C26.2745 39.9255 26.9038 42.8756 25.1193 44.6713L23.5158 46.2704C22.4814 47.3051 20.9555 47.5445 19.5331 47.1597L16.2486 50.4091C15.4555 51.1958 17.6107 54.5735 20.8003 58.4728C23.5589 61.8249 27.2745 65.519 30.6451 68.2724C34.5417 71.4449 37.9296 73.5827 38.7486 72.796L42.0331 69.5465C41.6451 68.1356 41.8693 66.6135 42.9296 65.5703L44.5331 63.9712C46.3434 62.1755 49.3607 62.8425 51.0676 64.6211L60.9727 74.4805C62.7572 76.2592 63.4124 79.2093 61.6193 81.005L60.0158 82.6041C59.0245 83.596 57.6193 83.8525 56.2572 83.5362L55.24 84.5452C48.0503 91.6939 36.8262 89.5989 26.352 83.0744C18.4124 78.1233 10.9641 70.6924 5.98998 62.8168C-0.587608 52.3759 -2.68243 41.2252 4.50722 34.0765L5.52446 33.0675C5.16239 31.6907 5.42101 30.2798 6.42101 29.2879M58.74 25.4057C64.4469 18.2313 64.5072 7.37138 55.7745 3.91673C48.5503 1.04355 38.99 4.8488 38.99 14.6398C38.99 18.2142 40.5331 22.3187 43.0072 25.4228C47.8607 31.3402 53.9124 31.4599 58.74 25.4057ZM84.5245 38.7369C78.4727 32.7169 68.6882 32.7169 62.6624 38.7369C56.6107 44.7569 56.6107 54.488 62.6624 60.4909C68.6882 66.5109 78.4986 66.5109 84.5245 60.4909C90.5503 54.488 90.5503 44.7397 84.5245 38.7369ZM56.5331 56.6172C52.3951 46.6552 57.7745 35.325 68.0245 32.1183C66.3003 29.8181 63.9469 28.0394 61.24 26.9876L61.0589 27.2271C55.0676 34.7435 46.6882 34.7435 40.6969 27.2271C40.6365 27.1501 40.5762 27.0646 40.5158 26.9876C34.6451 29.2537 30.6538 34.8889 30.6538 41.2937V52.4871C30.6538 54.7531 32.5245 56.6087 34.7917 56.6087H56.5331V56.6258V56.6172ZM73.5848 31.2632C83.7745 31.2632 92.0158 39.4808 92.0158 49.6053C92.0158 59.7299 83.7572 67.9475 73.5848 67.9475C67.171 67.9475 61.421 64.6724 58.0934 59.5674H34.7917C30.8693 59.5674 27.6883 56.3778 27.6883 52.4956V41.3022C27.6883 33.9311 32.1796 27.3468 38.8779 24.4993C37.1107 21.3867 36.0589 17.8294 36.0589 14.6398C36.0589 2.49724 47.9986 -2.4282 56.9296 1.18892C66.2658 4.90866 68.0589 15.5462 62.9383 24.5164C66.3089 25.9273 69.1882 28.3558 71.1796 31.4257C71.9727 31.3231 72.7831 31.2632 73.5934 31.2632" fill="#D54443"/>
</svg>
