<svg width="24" height="24" viewBox="0 0 24 24" fill="none" xmlns="http://www.w3.org/2000/svg">
<path d="M22 12C22 6.47715 17.5228 2 12 2C6.47715 2 2 6.47715 2 12C2 17.5228 6.47715 22 12 22C17.5228 22 22 17.5228 22 12Z" fill="white"/>
<path d="M15.0099 11.9998C15.0099 12.1898 14.9399 12.3798 14.7899 12.5298L11.2599 16.0598C10.9699 16.3498 10.4899 16.3498 10.1999 16.0598C9.90992 15.7698 9.90992 15.2898 10.1999 14.9998L13.1999 11.9998L10.1999 8.99984C9.90992 8.70984 9.90992 8.22984 10.1999 7.93984C10.4899 7.64984 10.9699 7.64984 11.2599 7.93984L14.7899 11.4698C14.9399 11.6198 15.0099 11.8098 15.0099 11.9998Z" fill="#FD8D1C"/>
</svg>
