<svg width="197" height="79" viewBox="0 0 197 79" fill="none" xmlns="http://www.w3.org/2000/svg">
<path fill-rule="evenodd" clip-rule="evenodd" d="M92.3635 30.9692C93.4949 29.2098 95.1543 27.8531 97.1042 27.0933C99.0541 26.3335 101.195 26.2095 103.219 26.739C105.244 27.2686 107.049 28.4246 108.377 30.0415C109.704 31.6585 110.485 33.6536 110.609 35.7412C111.703 35.6897 112.797 35.8577 113.826 36.2353C114.855 36.6129 115.797 37.1925 116.598 37.9398C117.399 38.6872 118.042 39.5872 118.49 40.5869C118.937 41.5865 119.179 42.6655 119.203 43.7602C119.226 44.855 119.03 45.9433 118.626 46.9611C118.221 47.9789 117.617 48.9055 116.849 49.6863C116.081 50.4672 115.164 51.0864 114.152 51.5075C113.141 51.9286 112.055 52.1431 110.959 52.1383H89.6043C88.0736 52.1362 86.5609 51.8082 85.167 51.1761C83.7732 50.544 82.5301 49.6223 81.5208 48.4724C80.5115 47.3225 79.7591 45.9708 79.3137 44.5075C78.8683 43.0442 78.7402 41.5028 78.9379 39.9862C79.1355 38.4695 79.6545 37.0123 80.4601 35.7118C81.2657 34.4113 82.3395 33.2973 83.6099 32.444C84.8804 31.5908 86.3182 31.0179 87.8276 30.7636C89.337 30.5093 90.8833 30.5794 92.3635 30.9692ZM99.0001 46.6427C99.3301 46.6427 99.6326 46.5272 99.871 46.3312L104.443 42.6785C104.584 42.5657 104.702 42.4262 104.789 42.268C104.876 42.1098 104.931 41.936 104.951 41.7566C104.971 41.5771 104.955 41.3955 104.905 41.2221C104.855 41.0487 104.771 40.8868 104.658 40.7459C104.545 40.6049 104.405 40.4875 104.247 40.4005C104.089 40.3134 103.915 40.2583 103.735 40.2384C103.556 40.2185 103.374 40.2342 103.2 40.2845C103.027 40.3348 102.865 40.4187 102.724 40.5315L100.375 42.411V36.1094C100.375 35.745 100.23 35.3956 99.9724 35.1379C99.7146 34.8803 99.3648 34.7355 99.0001 34.7355C98.6355 34.7355 98.2857 34.8803 98.0279 35.1379C97.77 35.3956 97.6251 35.745 97.6251 36.1094V42.411L95.2748 40.5334C95.1337 40.4207 94.9718 40.3368 94.7983 40.2867C94.6248 40.2365 94.4431 40.2209 94.2636 40.2409C94.0841 40.2609 93.9102 40.316 93.752 40.4031C93.5938 40.4903 93.4544 40.6076 93.3416 40.7486C93.2288 40.8896 93.1449 41.0514 93.0946 41.2247C93.0444 41.3981 93.0289 41.5797 93.0489 41.759C93.0689 41.9384 93.1241 42.1121 93.2112 42.2702C93.2984 42.4282 93.4159 42.5676 93.557 42.6803L98.1366 46.3404C98.3781 46.5354 98.6787 46.6426 98.9891 46.6445H99.0001V46.6427Z" fill="white"/>
<rect x="1.5" y="2.30469" width="194" height="74.6812" rx="37.3406" stroke="white" stroke-width="3"/>
</svg>
