<svg width="85" height="85" viewBox="0 0 85 85" fill="none" xmlns="http://www.w3.org/2000/svg">
<path d="M82.6951 42.5075H29.4858V38.1687H71.9644C72.6047 38.1687 73.1254 37.6487 73.1254 37.0094C73.1254 35.603 74.2694 34.4607 75.6779 34.4607C76.3182 34.4607 76.8389 33.9408 76.8389 33.3015V15.9123C76.8389 15.273 76.3182 14.7531 75.6779 14.7531C74.2694 14.7531 73.1254 13.6108 73.1254 12.2044C73.1254 11.5651 72.6047 11.0451 71.9644 11.0451H65.2631V6.70634H82.6866V42.4904L82.6951 42.5075ZM46.2177 25.5872C45.8336 27.2749 44.3141 28.545 42.5043 28.545C39.0128 28.545 37.3652 24.2233 39.9859 21.8877C40.6774 24.7944 43.6226 26.3117 46.2177 25.5872ZM55.7959 21.5382C57.2984 20.2767 57.5716 18.8191 57.5716 17.0887C60.7131 19.0833 64.8704 17.046 65.2375 13.3807H70.9486C71.3839 15.1281 72.7669 16.5176 74.5169 16.9438V32.2956C72.7669 32.7304 71.3839 34.1113 70.9486 35.8587H29.4773V24.6239C29.4773 19.4157 23.143 16.7562 19.4295 20.4557C18.3625 21.5212 17.6966 22.9958 17.6966 24.6239V35.8587H14.0685C13.6331 34.1113 12.2502 32.7304 10.5001 32.2956V16.9438C12.2587 16.509 13.6417 15.1281 14.0685 13.3807H32.1663V17.7194C32.1663 20.3278 34.181 22.4759 36.742 22.6975C35.3249 26.7123 38.3213 30.8551 42.5128 30.8551C45.8933 30.8551 48.6422 28.1103 48.6422 24.7348C48.6422 23.7886 48.4458 24.4023 49.0348 23.567C49.7946 22.4418 49.7007 21.8025 49.7775 21.8536C51.9886 23.2175 54.2422 22.8595 55.8045 21.5297H55.7874L55.7959 21.5382ZM62.4972 3.50128C63.0863 4.37074 62.9497 4.17468 62.9497 12.7073C62.9497 15.1878 60.107 16.509 58.3569 14.7616C57.3325 13.7387 57.5716 13.4745 57.5716 5.01004C57.5716 2.38463 61.0033 1.31059 62.4972 3.50128ZM54.8057 3.50128C55.4118 4.39631 55.2581 4.26845 55.2581 12.8692V17.7621C55.1984 18.4866 54.8569 19.2112 54.3191 19.7056C53.2434 20.6943 51.7837 20.3534 51.7837 20.2681C52.0568 20.3449 51.5703 21.0353 51.7068 20.2426C50.7763 19.9272 50.0934 19.2026 49.8885 18.0178C49.8544 17.7621 49.8714 18.0007 49.8714 4.98447C49.8714 2.33348 53.38 1.2765 54.8057 3.48423V3.50128ZM47.097 3.50128C47.7202 4.43893 47.5495 3.91043 47.5495 17.7194C47.5495 20.379 47.8141 21.5894 46.7982 22.6378C45.2531 24.3086 42.1713 23.2771 42.1713 20.7711V5.00152C42.1713 2.31643 45.6714 1.34469 47.097 3.49276V3.50128ZM34.4883 5.01004C34.4883 2.36758 37.9286 1.31912 39.4225 3.50981C40.0457 4.43893 39.8664 4.14911 39.8664 17.7194C39.8664 18.461 39.5506 19.1685 39.0042 19.6885C37.4505 21.2228 34.4798 20.1659 34.4798 17.7194V5.00152L34.4883 5.01004ZM17.7137 42.516H2.32198V6.72338H32.1663V11.0621H13.0441C12.4038 11.0621 11.8831 11.5821 11.8831 12.2214C11.8831 13.6279 10.7392 14.7701 9.33062 14.7701C8.69037 14.7701 8.16963 15.2901 8.16963 15.9294V33.3185C8.16963 33.9578 8.69037 34.4778 9.33062 34.4778C10.7392 34.4778 11.8831 35.62 11.8831 37.0265C11.8831 37.6658 12.4038 38.1858 13.0441 38.1858H17.6966V42.5245L17.7137 42.516ZM65.9888 44.8345V51.9777C65.9888 55.1231 63.4192 57.6889 60.2777 57.6889C59.6374 57.6889 59.1167 58.2088 59.1167 58.8481V82.6814H29.4858V58.8481C29.4858 58.2088 28.965 57.6889 28.3248 57.6889C23.7406 57.6889 20.0271 53.9724 20.0271 49.3949V24.6239C20.0271 22.6549 21.6149 21.0524 23.5869 21.0524C25.5589 21.0524 27.1553 22.6208 27.1553 24.6239V43.1809C26.6601 44.2464 27.7272 46.2325 29.6224 46.2325C35.8371 46.2325 40.8994 51.3043 40.8994 57.5098C40.8994 59.0357 43.2214 59.0357 43.2214 57.5098C43.2214 51.7135 39.5762 46.778 34.4542 44.826C34.3773 44.7919 65.9888 44.7493 65.9888 44.826V44.8345ZM83.8561 4.41336H65.2205C64.7082 0.0660772 59.2191 -1.57055 56.4191 1.80499C54.3959 -0.615849 50.691 -0.564704 48.719 1.80499C46.7214 -0.598801 42.9994 -0.590277 41.0103 1.82204C38.1335 -1.61317 32.7041 0.159842 32.209 4.41336H1.16099C0.520739 4.41336 0 4.93333 0 5.57263V43.6667C0 44.3061 0.520739 44.826 1.16099 44.826H17.7051C17.7051 49.6592 17.2015 53.2819 20.8125 56.8961C22.5454 58.6265 24.765 59.6835 27.1553 59.9477V83.8407C27.1553 84.48 27.676 85 28.3163 85H60.2606C60.9009 85 61.4216 84.48 61.4216 83.8407V59.9307C65.2973 59.3681 68.2937 56.0181 68.2937 51.9862V44.8431H83.839C84.4793 44.8431 85 44.3231 85 43.6838V5.56411C85 4.9248 84.4793 4.40483 83.839 4.40483L83.8561 4.41336Z" fill="#D54443"/>
</svg>
