<svg width="20" height="17" viewBox="0 0 20 17" fill="none" xmlns="http://www.w3.org/2000/svg">
<path d="M9.99956 17C9.81618 17 9.6328 16.9421 9.48018 16.8262L9.03771 16.4902C4.97368 13.4106 2.52097 11.5512 1.0932 9.07047C-0.275664 6.69999 -0.111231 4.82761 0.266186 3.67502C0.726411 2.27427 1.76165 1.14698 3.18376 0.500513C3.91494 0.169151 4.70999 0 5.54409 0C7.30812 0 8.93845 0.735717 9.99974 1.94875C11.061 0.735717 12.6902 0 14.4554 0C15.2895 0 16.0834 0.167997 16.8145 0.499356C18.2367 1.14585 19.2731 2.27202 19.7333 3.67387C20.1119 4.8255 20.2752 6.6977 18.9063 9.06932C17.4771 11.5499 15.021 13.4118 10.9521 16.4959L10.5202 16.8261C10.3664 16.9419 10.183 17 9.99956 17ZM5.54391 1.6637C4.95708 1.6637 4.40339 1.77956 3.89701 2.00897C2.91029 2.45734 2.19449 3.22898 1.88217 4.18364C1.48818 5.3828 1.72718 6.79049 2.57073 8.2527C3.82247 10.4274 6.02082 12.1017 9.99823 15.1175C13.9759 12.1029 16.1742 10.4265 17.4257 8.25389C18.2705 6.79058 18.5083 5.38289 18.1155 4.18364C17.8019 3.23013 17.0862 2.45734 16.0994 2.00897C15.5942 1.77957 15.0406 1.6637 14.4537 1.6637C12.8601 1.6637 11.3789 2.53034 10.7683 3.81983C10.6299 4.11412 10.3282 4.30181 9.99807 4.30181C9.66679 4.30181 9.36748 4.11412 9.22785 3.81983C8.61855 2.53031 7.13757 1.6637 5.54391 1.6637Z" fill="#C2252C"/>
<path d="M5.54391 1.6637C4.95708 1.6637 4.40339 1.77956 3.89701 2.00897C2.91029 2.45734 2.19449 3.22898 1.88217 4.18364C1.48818 5.3828 1.72718 6.79049 2.57073 8.2527C3.82247 10.4274 6.02082 12.1017 9.99823 15.1175C13.9759 12.1029 16.1742 10.4265 17.4257 8.25389C18.2705 6.79058 18.5083 5.38289 18.1155 4.18364C17.8019 3.23013 17.0862 2.45734 16.0994 2.00897C15.5942 1.77957 15.0406 1.6637 14.4537 1.6637C12.8601 1.6637 11.3789 2.53034 10.7683 3.81983C10.6299 4.11412 10.3282 4.30181 9.99807 4.30181C9.66679 4.30181 9.36748 4.11412 9.22785 3.81983C8.61855 2.53031 7.13757 1.6637 5.54391 1.6637Z" fill="#C2252C"/>
</svg>
