<svg width="61" height="61" viewBox="0 0 61 61" fill="none" xmlns="http://www.w3.org/2000/svg">
<circle cx="30.5" cy="30.5" r="30.5" fill="#FCF9F1"/>
<path fill-rule="evenodd" clip-rule="evenodd" d="M42 23.6732C41.1 24.0656 40.1469 24.3228 39.1716 24.4364C40.1955 23.8362 40.9652 22.883 41.3364 21.7556C40.368 22.3208 39.3112 22.7184 38.2104 22.9316C37.7463 22.4462 37.1885 22.0602 36.5706 21.7969C35.9528 21.5337 35.288 21.3988 34.6164 21.4004C31.8972 21.4004 29.6928 23.57 29.6928 26.2484C29.6928 26.6276 29.736 26.9972 29.82 27.3524C27.8694 27.2598 25.9595 26.7617 24.2122 25.8898C22.4649 25.0178 20.9185 23.7913 19.6716 22.2884C19.2343 23.0257 19.0038 23.8672 19.0044 24.7244C19.0057 25.526 19.2067 26.3146 19.5893 27.019C19.9719 27.7234 20.5239 28.3213 21.1956 28.7588C20.4147 28.7349 19.6505 28.5273 18.9648 28.1528V28.2128C18.9648 30.5612 20.6616 32.5208 22.9128 32.966C22.1876 33.1596 21.4282 33.1883 20.6904 33.05C21.3168 34.9748 23.1348 36.3764 25.29 36.416C23.538 37.7666 21.3869 38.4968 19.1748 38.492C18.7822 38.4916 18.3899 38.4684 18 38.4224C20.2588 39.849 22.8764 40.6043 25.548 40.6004C34.6044 40.6004 39.5568 33.2144 39.5568 26.81C39.5568 26.6 39.552 26.39 39.5424 26.1824C40.5045 25.4995 41.3368 24.649 42 23.6732Z" fill="#FD8D1C"/>
</svg>
